<?xml version="1.0" encoding="UTF-8" standalone="no"?>
<!DOCTYPE svg PUBLIC "-//W3C//DTD SVG 1.1//EN" "http://www.w3.org/Graphics/SVG/1.1/DTD/svg11.dtd">
<svg width="100%" height="100%" viewBox="0 0 610 616" version="1.1" xmlns="http://www.w3.org/2000/svg" xmlns:xlink="http://www.w3.org/1999/xlink" xml:space="preserve" xmlns:serif="http://www.serif.com/" style="fill-rule:evenodd;clip-rule:evenodd;stroke-linejoin:round;stroke-miterlimit:2;">
    <g transform="matrix(1,0,0,1,-2214.74,-16.9671)">
        <g opacity="0.1">
            <g transform="matrix(0.257389,0.966308,0.966308,-0.257389,2368.14,60.3111)">
                <path d="M294.408,-226.254C124.428,-226.254 -13.37,-89.848 -13.37,78.419C-13.37,246.686 124.427,383.092 294.408,383.093C464.389,383.093 602.187,246.687 602.187,78.419C602.187,-89.847 464.39,-226.253 294.408,-226.254" style="fill:rgb(217,239,253);fill-rule:nonzero;"/>
            </g>
        </g>
        <g transform="matrix(506.088,-129.448,-129.448,-506.088,2260.05,392.263)">
            <path d="M0.509,0.506C0.233,0.503 0.013,0.275 0.015,-0.003C0.018,-0.281 0.243,-0.504 0.519,-0.501C0.794,-0.498 1.015,-0.271 1.012,0.007C1.01,0.241 0.85,0.436 0.636,0.49C0.595,0.501 0.553,0.506 0.509,0.506Z" style="fill:url(#_Linear1);fill-rule:nonzero;"/>
        </g>
    </g>
    <defs>
        <linearGradient id="_Linear1" x1="0" y1="0" x2="1" y2="0" gradientUnits="userSpaceOnUse" gradientTransform="matrix(1,0,0,-1,0,0.00228993)"><stop offset="0" style="stop-color:rgb(90,197,242);stop-opacity:1"/><stop offset="0.99" style="stop-color:rgb(14,27,57);stop-opacity:1"/><stop offset="1" style="stop-color:rgb(14,27,57);stop-opacity:1"/></linearGradient>
    </defs>
</svg>
