<?xml version="1.0" encoding="UTF-8" standalone="no"?>
<!DOCTYPE svg PUBLIC "-//W3C//DTD SVG 1.1//EN" "http://www.w3.org/Graphics/SVG/1.1/DTD/svg11.dtd">
<svg width="100%" height="100%" viewBox="0 0 218 218" version="1.1" xmlns="http://www.w3.org/2000/svg" xmlns:xlink="http://www.w3.org/1999/xlink" xml:space="preserve" xmlns:serif="http://www.serif.com/" style="fill-rule:evenodd;clip-rule:evenodd;stroke-linejoin:round;stroke-miterlimit:2;">
    <g transform="matrix(1,0,0,1,-522.651,-1395.96)">
        <g opacity="0.2">
            <g transform="matrix(-0.986181,0.165673,0.165673,0.986181,666.907,1607.43)">
                <path d="M18.011,-215.925C-42.03,-215.925 -90.703,-167.253 -90.702,-107.211C-90.702,-47.17 -42.03,1.503 18.011,1.502C78.052,1.502 126.725,-47.17 126.725,-107.211C126.724,-167.252 78.052,-215.926 18.011,-215.925" style="fill:rgb(242,92,204);fill-rule:nonzero;"/>
            </g>
        </g>
        <g opacity="0.2">
            <g transform="matrix(-0.98618,0.165675,0.165675,0.98618,662.063,1593.42)">
                <path d="M15.555,-186.485C-36.3,-186.485 -78.337,-144.448 -78.336,-92.594C-78.336,-40.738 -36.3,1.299 15.555,1.298C67.41,1.297 109.447,-40.739 109.446,-92.594C109.447,-144.448 67.409,-186.484 15.555,-186.485" style="fill:rgb(242,92,204);fill-rule:nonzero;"/>
            </g>
        </g>
        <g transform="matrix(-138.815,113.454,113.454,138.815,702.045,1446.93)">
            <path d="M0.265,-0.427C0.501,-0.561 0.801,-0.479 0.936,-0.244C1.07,-0.008 0.988,0.292 0.753,0.427C0.517,0.561 0.217,0.479 0.082,0.244C-0.038,0.032 0.015,-0.231 0.198,-0.38C0.219,-0.397 0.241,-0.413 0.265,-0.427Z" style="fill:url(#_Linear1);fill-rule:nonzero;"/>
        </g>
        <g opacity="0.25">
            <g transform="matrix(1,0,0,1,550.095,1543.64)">
                <path d="M0,-4.971C0.576,-4.46 1.158,-3.952 1.749,-3.451C20.446,12.757 42.123,19.915 64.023,31.085C72.732,35.622 81.024,41.164 86.253,48.999C89.444,48.814 92.657,48.457 95.881,47.915C109.466,45.633 121.797,40.354 132.314,32.871C121.665,23.425 107.439,18.272 93.802,12.807C79.568,7.099 65.993,2.63 51.688,-2.166C26.372,-10.599 3.968,-29.435 -5.534,-53.97C-7.184,-44.429 -7.277,-34.451 -5.582,-24.361C-4.439,-17.56 -2.545,-11.074 0,-4.971" style="fill:rgb(29,29,27);fill-rule:nonzero;"/>
            </g>
        </g>
        <g opacity="0.25">
            <g transform="matrix(1,0,0,1,591.9,1518.69)">
                <path d="M0,-92.768C2.646,-86.893 6.158,-81.358 11.213,-76.434C19.54,-68.383 27.792,-62.12 38.521,-58.523C47.571,-55.543 69.063,-50.829 70.485,-50.393C89.9,-43.305 103.416,-28.476 114.308,-11.857C118.596,-5.653 121.536,1.196 124.684,8.423C127.778,-3.302 128.492,-15.859 126.352,-28.596C125.967,-30.887 125.497,-33.141 124.945,-35.358C119.355,-42.926 112.954,-49.891 105.132,-55.763C87.424,-68.763 66.736,-72.712 47.17,-83.374C39.687,-87.36 29.65,-92.816 26.932,-101.191C26.251,-101.092 25.57,-100.987 24.889,-100.872C16.003,-99.379 7.656,-96.603 0,-92.768" style="fill:rgb(29,29,27);fill-rule:nonzero;"/>
            </g>
        </g>
        <g opacity="0.25">
            <g transform="matrix(1,0,0,1,554.903,1549.85)">
                <path d="M0,-88.867C6.889,-75.795 13.609,-62.644 22.276,-50.364C31.704,-37.098 45.25,-27.449 61.158,-23.822C72.834,-21.284 84.073,-18.673 95.423,-14.054C112.485,-7.318 129.824,1.065 138.095,17.797C145.642,10.398 151.813,1.689 156.295,-7.885C142.933,-27.196 127.529,-44.527 105.328,-55.542C97.991,-59.034 91.276,-61.506 83.397,-61.532C76.174,-61.669 69.608,-61.916 62.713,-62.782C57.642,-63.505 52.679,-64.921 47.788,-67.25C34.356,-73.543 23.256,-82.027 16.601,-94.859C14.791,-98.358 13.606,-102.536 13.414,-106.664C8.21,-101.318 3.7,-95.335 0,-88.867" style="fill:rgb(29,29,27);fill-rule:nonzero;"/>
            </g>
        </g>
    </g>
    <defs>
        <linearGradient id="_Linear1" x1="0" y1="0" x2="1" y2="0" gradientUnits="userSpaceOnUse" gradientTransform="matrix(1,0,0,-1,0,2.74082e-06)"><stop offset="0" style="stop-color:rgb(249,233,87);stop-opacity:1"/><stop offset="0" style="stop-color:rgb(249,233,87);stop-opacity:1"/><stop offset="0.99" style="stop-color:rgb(35,5,30);stop-opacity:1"/><stop offset="1" style="stop-color:rgb(35,5,30);stop-opacity:1"/></linearGradient>
    </defs>
</svg>
