<?xml version="1.0" encoding="UTF-8" standalone="no"?>
<!DOCTYPE svg PUBLIC "-//W3C//DTD SVG 1.1//EN" "http://www.w3.org/Graphics/SVG/1.1/DTD/svg11.dtd">
<svg width="100%" height="100%" viewBox="0 0 281 283" version="1.1" xmlns="http://www.w3.org/2000/svg" xmlns:xlink="http://www.w3.org/1999/xlink" xml:space="preserve" xmlns:serif="http://www.serif.com/" style="fill-rule:evenodd;clip-rule:evenodd;stroke-linejoin:round;stroke-miterlimit:2;">
    <g transform="matrix(1,0,0,1,-2073.39,-1165.05)">
        <g opacity="0.3">
            <g transform="matrix(-0.40904,0.912516,0.912516,0.40904,2318.31,1213.15)">
                <path d="M127.819,-197.369C49.67,-197.369 -13.682,-134.657 -13.682,-57.296C-13.683,20.065 49.67,82.778 127.819,82.779C205.968,82.778 269.32,20.065 269.321,-57.296C269.319,-134.656 205.969,-197.37 127.819,-197.369" style="fill:rgb(202,85,78);fill-rule:nonzero;"/>
            </g>
        </g>
        <g transform="matrix(212.59,113.749,113.749,-212.59,2104.05,1253.82)">
            <path d="M0.124,0.349C-0.055,0.142 -0.03,-0.173 0.18,-0.354C0.39,-0.534 0.705,-0.512 0.884,-0.304C1.063,-0.097 1.038,0.218 0.828,0.399C0.666,0.538 0.441,0.557 0.265,0.462C0.213,0.435 0.165,0.397 0.124,0.349Z" style="fill:url(#_Linear1);fill-rule:nonzero;"/>
        </g>
        <g opacity="0.25">
            <g transform="matrix(1,0,0,1,2167.57,1234.15)">
                <path d="M0,109.695C2.66,103.76 0.054,96.813 -5.821,94.179L-15.83,89.693C-20.984,87.383 -23.271,81.289 -20.937,76.083C-18.603,70.876 -12.533,68.528 -7.379,70.839L20.991,83.555C25.476,85.565 30.758,83.523 32.788,78.992C34.819,74.462 32.83,69.16 28.345,67.149L-34.554,38.955C-39.573,36.705 -41.8,30.769 -39.527,25.698C-37.254,20.627 -31.342,18.34 -26.321,20.59L-5.593,29.882C-0.572,32.132 5.34,29.844 7.613,24.773C9.887,19.702 7.659,13.767 2.64,11.516L-42.265,-8.612C-50.594,0.616 -57.653,11.288 -63.02,23.258C-72.785,45.045 -75.634,68.158 -72.51,90.099L-15.457,115.674C-9.581,118.307 -2.661,115.631 0,109.695" style="fill:rgb(29,29,27);fill-rule:nonzero;"/>
            </g>
        </g>
        <g opacity="0.1">
            <g transform="matrix(1,0,0,1,2221.53,1378.56)">
                <path d="M0,-126.902C-2.66,-120.966 -0.054,-114.019 5.821,-111.385L67.751,-83.626C72.235,-81.615 74.225,-76.313 72.194,-71.783L71.097,-69.334C69.065,-64.803 63.784,-62.76 59.3,-64.771L26.493,-79.476C22.009,-81.487 16.728,-79.444 14.696,-74.914C12.666,-70.382 14.655,-65.081 19.14,-63.071L84.573,-33.739C89.059,-31.729 91.048,-26.426 89.017,-21.896L88.139,-19.937C86.107,-15.407 80.826,-13.364 76.342,-15.375L42.016,-30.761C36.995,-33.011 31.083,-30.724 28.81,-25.653C26.536,-20.582 28.763,-14.647 33.783,-12.396L80.65,8.612C88.979,-0.616 96.038,-11.288 101.404,-23.258C111.17,-45.045 114.019,-68.158 110.896,-90.099L15.457,-132.881C9.581,-135.514 2.661,-132.838 0,-126.902" style="fill:rgb(29,29,27);fill-rule:nonzero;"/>
            </g>
        </g>
    </g>
    <defs>
        <linearGradient id="_Linear1" x1="0" y1="0" x2="1" y2="0" gradientUnits="userSpaceOnUse" gradientTransform="matrix(1,0,0,-1,0,0.0225271)"><stop offset="0" style="stop-color:rgb(143,191,33);stop-opacity:1"/><stop offset="0" style="stop-color:rgb(143,191,33);stop-opacity:1"/><stop offset="1" style="stop-color:rgb(27,5,20);stop-opacity:1"/></linearGradient>
    </defs>
</svg>
