<?xml version="1.0" encoding="UTF-8" standalone="no"?>
<!DOCTYPE svg PUBLIC "-//W3C//DTD SVG 1.1//EN" "http://www.w3.org/Graphics/SVG/1.1/DTD/svg11.dtd">
<svg width="100%" height="100%" viewBox="0 0 98 137" version="1.1" xmlns="http://www.w3.org/2000/svg" xmlns:xlink="http://www.w3.org/1999/xlink" xml:space="preserve" xmlns:serif="http://www.serif.com/" style="fill-rule:evenodd;clip-rule:evenodd;stroke-linejoin:round;stroke-miterlimit:2;">
    <g transform="matrix(1,0,0,1,-1497.16,-1287.02)">
        <g transform="matrix(1,0,0,1,1567.19,1423.18)">
            <path d="M0,-136.158L-39.477,-109.912L-60.836,-65.883L-70.033,-20.986L-46.854,0L-21.675,-10.897L13.843,-58.84L27.318,-124.444L19.005,-134.736L0,-136.158Z" style="fill:rgb(41,22,64);fill-rule:nonzero;"/>
        </g>
        <g transform="matrix(1,0,0,1,1566.74,1310.43)">
            <path d="M0,-9.615L9.39,-3.901L7.386,6.729L12.885,-1.225L8.2,11.538L14.724,-0.704L23.255,0.573L22.536,13.8L27.773,-11.701L19.46,-21.993L0.455,-23.415L0,-9.615Z" style="fill:rgb(107,38,100);fill-rule:nonzero;"/>
        </g>
        <g transform="matrix(1,0,0,1,1527.72,1396.93)">
            <path d="M0,-83.666L-21.359,-39.637L-28.106,20.367L-7.378,26.246L39.021,-96.111L39.477,-109.912L0,-83.666Z" style="fill:rgb(152,57,163);fill-rule:nonzero;"/>
        </g>
        <g transform="matrix(1,0,0,1,1567.19,1417.3)">
            <path d="M0,-130.279L-39.477,-104.033L-60.836,-60.004L-70.033,-15.107L-67.583,0L-52.694,-52.72L-3.311,-123.747L-0.455,-116.478L0,-130.279Z" style="fill:rgb(193,76,214);fill-rule:nonzero;"/>
        </g>
    </g>
</svg>
