<?xml version="1.0" encoding="UTF-8" standalone="no"?>
<!DOCTYPE svg PUBLIC "-//W3C//DTD SVG 1.1//EN" "http://www.w3.org/Graphics/SVG/1.1/DTD/svg11.dtd">
<svg width="100%" height="100%" viewBox="0 0 180 188" version="1.1" xmlns="http://www.w3.org/2000/svg" xmlns:xlink="http://www.w3.org/1999/xlink" xml:space="preserve" xmlns:serif="http://www.serif.com/" style="fill-rule:evenodd;clip-rule:evenodd;stroke-linejoin:round;stroke-miterlimit:2;">
    <g transform="matrix(1,0,0,1,-2123.15,-649.266)">
        <g transform="matrix(1,0,0,1,2250.97,769.805)">
            <path d="M0,-115.194L-51.615,-120.539L-111.634,-67.2L-127.814,5.345L-103.979,-4.902L14.271,-92.179L0,-115.194Z" style="fill:rgb(152,57,163);fill-rule:nonzero;"/>
        </g>
        <g transform="matrix(1,0,0,1,2123.15,649.266)">
            <path d="M0,125.884L16.181,53.339L76.199,0L88.013,1.223L93.409,24.145L0,125.884Z" style="fill:rgb(193,76,214);fill-rule:nonzero;"/>
        </g>
        <g transform="matrix(1,0,0,1,2265.24,836.813)">
            <path d="M0,-159.187L-118.251,-71.909L-142.086,-61.663L-124.302,-10.809L-124.96,-3.091L-92.235,0L8.656,-40.415L37.773,-99.029L0,-159.187Z" style="fill:rgb(77,29,82);fill-rule:nonzero;"/>
        </g>
        <g transform="matrix(1,0,0,1,2172.75,765.285)">
            <path d="M0,71.146L12.705,65.684L32.001,42.018L11.445,57.869L-3.35,57.216L9.643,51.63L36.958,19.429L4.954,41.747L-10.772,39.95L-25.767,-0.381L-49.602,9.865L-31.817,60.719L-32.476,68.437L0.249,71.527L0,71.146Z" style="fill:rgb(107,38,100);fill-rule:nonzero;"/>
        </g>
        <g transform="matrix(1,0,0,1,2147.12,783.426)">
            <path d="M0,39.921L-17.785,-10.932L-23.963,-8.276L-6.178,42.577L-6.836,50.295L-0.934,50.853L0,39.921Z" style="fill:rgb(175,62,179);fill-rule:nonzero;"/>
        </g>
    </g>
</svg>
