<?xml version="1.0" encoding="UTF-8" standalone="no"?>
<!DOCTYPE svg PUBLIC "-//W3C//DTD SVG 1.1//EN" "http://www.w3.org/Graphics/SVG/1.1/DTD/svg11.dtd">
<svg width="100%" height="100%" viewBox="0 0 111 127" version="1.1" xmlns="http://www.w3.org/2000/svg" xmlns:xlink="http://www.w3.org/1999/xlink" xml:space="preserve" xmlns:serif="http://www.serif.com/" style="fill-rule:evenodd;clip-rule:evenodd;stroke-linejoin:round;stroke-miterlimit:2;">
    <g transform="matrix(1,0,0,1,-2123.15,-779.456)">
        <g transform="matrix(1,0,0,1,2210.34,906.99)">
            <path d="M0,-127.534L-43.686,-108.564L-85.575,-42.738L-87.189,-19.861C-87.189,-19.861 -48.992,0 -50.154,-1.078C-51.316,-2.156 19.226,-84.533 19.226,-84.533L0,-127.534Z" style="fill:rgb(152,57,163);fill-rule:nonzero;"/>
        </g>
        <g transform="matrix(1,0,0,1,2123.15,788.484)">
            <path d="M0,98.645L1.614,75.769L43.504,9.942L66.399,0L58.906,24.138L27.061,64.457L24.954,84.019L0,98.645Z" style="fill:rgb(193,76,214);fill-rule:nonzero;"/>
        </g>
        <g transform="matrix(1,0,0,1,2171.67,822.64)">
            <path d="M0,23.206L38.669,-43.184L58.479,-9.732C61.983,-3.812 62.578,3.389 60.092,9.803L38.154,66.39L0,23.206Z" style="fill:rgb(41,22,64);fill-rule:nonzero;"/>
        </g>
        <g transform="matrix(1,0,0,1,2123.15,867.2)">
            <path d="M0,19.929L24.954,5.303L48.521,-21.354L86.675,21.83L51.22,35.912C37.697,41.283 22.317,38.776 11.201,29.388L0,19.929Z" style="fill:rgb(77,29,82);fill-rule:nonzero;"/>
        </g>
    </g>
</svg>
