<?xml version="1.0" encoding="UTF-8" standalone="no"?>
<!DOCTYPE svg PUBLIC "-//W3C//DTD SVG 1.1//EN" "http://www.w3.org/Graphics/SVG/1.1/DTD/svg11.dtd">
<svg width="100%" height="100%" viewBox="0 0 336 244" version="1.1" xmlns="http://www.w3.org/2000/svg" xmlns:xlink="http://www.w3.org/1999/xlink" xml:space="preserve" xmlns:serif="http://www.serif.com/" style="fill-rule:evenodd;clip-rule:evenodd;stroke-linejoin:round;stroke-miterlimit:2;">
    <g transform="matrix(1,0,0,1,-1037.14,-1214.57)">
        <g transform="matrix(1,0,0,1,1296.05,1457.79)">
            <path d="M0,-243.219L-215.777,-142.924L-258.909,-59.557L-209.236,0L-165.162,-66.538L11.302,-127.474L69.856,-205.375L0,-243.219Z" style="fill:rgb(152,57,163);fill-rule:nonzero;"/>
        </g>
        <g transform="matrix(1,0,0,1,1365.91,1360.38)">
            <path d="M0,-107.974L-69.856,-145.818L-285.633,-45.523L-328.765,37.844L-274.566,-13.805L-31.085,-113.717L-58.554,-30.073L0,-107.974Z" style="fill:rgb(193,76,214);fill-rule:nonzero;"/>
        </g>
        <g transform="matrix(1,0,0,1,1308.37,1323.35)">
            <path d="M0,-72.528L-18.969,-48.405L-107.327,-2.26L-18.17,-39.635L18.12,-77.451L-12.706,-34.003L-89.623,6.561L-6.046,-27.857L35.726,-79.089" style="fill:rgb(193,76,214);fill-rule:nonzero;"/>
        </g>
        <g transform="matrix(1,0,0,1,1307.35,1379.88)">
            <path d="M0,-49.573L-176.464,11.363L-220.539,77.901L-84.939,7.743L3.046,-4.406L65.053,-94.554L58.554,-127.474L0,-49.573Z" style="fill:rgb(107,38,100);fill-rule:nonzero;"/>
        </g>
        <g transform="matrix(1,0,0,1,1130.89,1396.85)">
            <path d="M0,-5.602L-44.075,60.936L29.029,38.903L105.282,52.021L179.51,-21.371L189.578,-36.007L176.464,-66.538L0,-5.602Z" style="fill:rgb(77,29,82);fill-rule:nonzero;"/>
        </g>
    </g>
</svg>
