<?xml version="1.0" encoding="UTF-8" standalone="no"?>
<!DOCTYPE svg PUBLIC "-//W3C//DTD SVG 1.1//EN" "http://www.w3.org/Graphics/SVG/1.1/DTD/svg11.dtd">
<svg width="100%" height="100%" viewBox="0 0 7 5" version="1.1" xmlns="http://www.w3.org/2000/svg" xmlns:xlink="http://www.w3.org/1999/xlink" xml:space="preserve" xmlns:serif="http://www.serif.com/" style="fill-rule:evenodd;clip-rule:evenodd;stroke-linejoin:round;stroke-miterlimit:2;">
    <g transform="matrix(1,0,0,1,-124.705,-912.035)">
        <g transform="matrix(1,0,0,1,124.743,916.044)">
            <path d="M0,-2.794C-0.657,2.025 7.614,1.65 6.653,-2.929C6.256,-4.819 3.364,-4.02 3.76,-2.13C3.689,-2.472 3.718,-2.063 3.769,-2.264C3.809,-2.419 3.692,-2.178 3.839,-2.425C3.713,-2.213 4.002,-2.493 3.869,-2.441C3.774,-2.404 3.689,-2.161 3.891,-2.443C3.871,-2.416 3.735,-2.339 3.701,-2.337C3.986,-2.352 3.806,-2.369 3.689,-2.346C3.593,-2.326 3.499,-2.298 3.403,-2.278C3.604,-2.319 3.564,-2.279 3.387,-2.288C3.24,-2.296 2.798,-2.361 3.135,-2.283C3.041,-2.305 2.949,-2.325 2.857,-2.355C2.75,-2.391 2.784,-2.373 2.956,-2.304C2.924,-2.32 2.892,-2.336 2.86,-2.353C2.783,-2.569 2.911,-2.171 2.866,-2.329C2.84,-2.352 2.815,-2.375 2.793,-2.401C2.718,-2.483 2.746,-2.448 2.876,-2.297C2.893,-2.214 2.964,-2.029 2.909,-2.221C3.016,-1.85 2.937,-2.316 2.893,-1.995C3.002,-2.798 2.7,-3.608 1.845,-3.843C1.146,-4.036 0.11,-3.604 0,-2.794" style="fill:white;fill-rule:nonzero;"/>
        </g>
    </g>
</svg>
