<?xml version="1.0" encoding="UTF-8" standalone="no"?>
<!DOCTYPE svg PUBLIC "-//W3C//DTD SVG 1.1//EN" "http://www.w3.org/Graphics/SVG/1.1/DTD/svg11.dtd">
<svg width="100%" height="100%" viewBox="0 0 8 5" version="1.1" xmlns="http://www.w3.org/2000/svg" xmlns:xlink="http://www.w3.org/1999/xlink" xml:space="preserve" xmlns:serif="http://www.serif.com/" style="fill-rule:evenodd;clip-rule:evenodd;stroke-linejoin:round;stroke-miterlimit:2;">
    <g transform="matrix(1,0,0,1,-232.308,-1119.85)">
        <g transform="matrix(1,0,0,1,235.241,1121.23)">
            <path d="M0,1.545C0.05,1.912 0.04,1.34 0.024,1.601C0.01,1.715 0.02,1.702 0.055,1.561C0.038,1.609 0.021,1.657 0.005,1.706C0.105,1.885 -0.259,1.66 0.032,1.693C0.141,1.706 -0.172,1.797 0.075,1.682C0.208,1.62 0.194,1.634 0.068,1.679C0.171,1.642 0.281,1.61 0.389,1.59C0.559,1.558 0.174,1.593 0.465,1.577C0.581,1.57 0.697,1.572 0.813,1.573C0.994,1.573 1.367,1.642 1.525,1.788C1.372,1.646 1.436,1.754 1.55,1.823C1.61,1.86 1.512,1.645 1.554,1.854C1.53,1.733 1.486,1.668 1.517,1.833C1.45,1.469 1.426,1.992 1.487,1.702C1.091,3.588 3.982,4.395 4.38,2.5C5.418,-2.447 -3.601,-2.85 -2.893,2.344C-2.783,3.149 -1.754,3.587 -1.047,3.393C-0.181,3.154 0.11,2.352 0,1.545" style="fill:white;fill-rule:nonzero;"/>
        </g>
    </g>
</svg>
